<?xml version="1.0"?>
<svg xmlns:rdf="http://www.w3.org/1999/02/22-rdf-syntax-ns#" xmlns="http://www.w3.org/2000/svg" xmlns:cc="http://creativecommons.org/ns#" xmlns:xlink="http://www.w3.org/1999/xlink" xmlns:dc="http://purl.org/dc/elements/1.1/" xmlns:svg="http://www.w3.org/2000/svg" id="svg2" viewBox="0 0 400.08 400.12" version="1.1">
  <defs id="defs4">
    <linearGradient id="linearGradient2003" x1="254.29" gradientUnits="userSpaceOnUse" y1="535.22" gradientTransform="translate(-69.512 -370.92)" x2="520" y2="818.08">
      <stop id="stop1908" stop-color="#fff" offset="0"/>
      <stop id="stop1910" stop-color="#fff" stop-opacity="0" offset="1"/>
    </linearGradient>
  </defs>
  <g id="layer1" transform="translate(-43.423 22.103)">
    <flowRoot id="flowRoot1926" font-size="12px" font-family="Bitstream Vera Sans" xml:space="preserve" transform="matrix(35.932 0 0 29.741 -1707.9 -1961.1)" line-height="125%" font-weight="bold" fill="#ffffff">
      <flowRegion id="flowRegion1928">
        <rect id="rect1930" height="231.43" width="528.57" y="63.791" x="80" fill="#fff"/>
      </flowRegion>
      <flowPara id="flowPara1932">V</flowPara>
    </flowRoot>
    <g id="g1996" transform="matrix(.81705 0 0 .86543 -33.878 -126.99)">
      <path id="path1897" stroke-linejoin="round" d="m707.66 522.92c-22.89 117.96-142.73 196.07-267.68 174.46-124.94-21.61-207.68-134.76-184.79-252.72s142.74-196.07 267.68-174.46c124.6 21.55 207.29 134.16 184.96 251.88" transform="matrix(1.062 0 0 1.062 -171.81 -161.4)" stroke="#fa9595" fill="#faa"/>
      <path id="path1899" stroke-linejoin="round" d="m707.66 522.92c-22.89 117.96-142.73 196.07-267.68 174.46-124.94-21.61-207.68-134.76-184.79-252.72s142.74-196.07 267.68-174.46c124.6 21.55 207.29 134.16 184.96 251.88" transform="translate(-141.68 -131.36)" stroke="#fa9595" fill="#666"/>
      <path id="path1993" fill-rule="evenodd" fill="#fff" d="m414.85 236.73c-5.1889-5.0951 34.875-38.548 30.186-41.732-6.4519-4.3806-74.403 66.731-72.855 91.266 0.14537 22.384-11.176 42.211-25.83 59.653-18.027-19.359-33.333-41.925-33.164-67.923 2.4993-39.616-54.643-93.369-94.199-68.901-30.036 26.384-1.4462 90.478 46.43 99.238 31.573 7.1792 53.096 26.569 69.369 50.299-14.137 14.512-29.295 27.131-39.712 37.948-21.517 30.158-69.357 67.836-89.246 99.004-14.673 18.682 18.25 44.68 38.181 30.337 33.151-34.081 57.142-73.856 81.72-112.82 5.7054-12.784 11.968-25.672 19.367-37.735 5.3624 9.5982 10.141 19.559 14.562 29.465 24.578 38.966 48.569 78.741 81.72 112.82 19.931 14.344 52.834-11.655 38.16-30.337-19.889-31.168-67.708-68.846-89.225-99.004-8.7026-9.0364-20.732-19.327-32.697-30.932 15.361-19.308 35.122-34.583 62.353-40.775 23.116-4.2297 68.233-85.99 65.207-88.737-4.9336-3.2141-32.677 41.044-36.085 37.905-3.4078-3.1396 28.456-43.659 24.925-46.425-3.9222-3.0727-33.167 39.301-37.555 35.511-4.3873-3.79 30.59-40.13 26.78-43.576-4.4965-4.4334-32.579 38.316-37.214 34.478-4.6348-3.8388 30.574-39.213 27.631-42.747-3.8623-4.6386-33.44 38.995-38.811 33.721z"/>
      <path id="path1986" stroke-linejoin="round" stroke="#fa9595" fill="#f00" d="m340.51 135.26c-109.28-0.44125-206.62 73.026-227 178.03-22.878 117.9 59.9 231.12 184.78 252.72 124.88 21.599 244.81-56.568 267.69-174.47l0.15625-0.84375c22.329-117.69-60.37-230.33-184.94-251.88-13.659-2.3624-27.268-3.5083-40.688-3.5625zm99.75 49.531c0.31774-0.007 0.57963 0.0506 0.78125 0.1875 4.6895 3.184-35.376 36.655-30.188 41.75 5.3715 5.2745 34.95-38.357 38.812-33.719 2.9421 3.5335-32.26 38.88-27.625 42.719 4.6348 3.8388 32.722-38.902 37.219-34.469 3.8102 3.4455-31.169 39.804-26.781 43.594 4.3873 3.79 33.609-38.604 37.531-35.531 3.5308 2.7661-28.314 43.298-24.906 46.438 3.4079 3.1396 31.16-41.12 36.094-37.906 3.0266 2.7473-42.103 84.489-65.219 88.719-27.231 6.1918-46.983 21.474-62.344 40.781 11.965 11.605 23.985 21.901 32.688 30.938 21.517 30.158 69.33 67.832 89.219 99 14.673 18.682-18.225 44.687-38.156 30.344-33.151-34.081-57.14-73.846-81.719-112.81-4.4212-9.9064-9.2002-19.871-14.562-29.469-7.3989 12.063-13.67 24.935-19.375 37.719-24.578 38.966-48.568 78.762-81.719 112.84-19.931 14.344-52.861-11.662-38.188-30.344 19.889-31.168 67.733-68.842 89.25-99 10.417-10.816 25.581-23.457 39.719-37.969-16.273-23.731-37.802-43.102-69.375-50.281-47.876-8.7602-76.474-72.866-46.438-99.25 39.556-24.468 96.718 29.291 94.219 68.906-0.16892 25.998 15.13 48.578 33.156 67.938 14.654-17.442 25.989-37.272 25.844-59.656-1.4994-23.768 62.213-91.257 72.062-91.469z"/>
      <path id="path1901" stroke-linejoin="round" stroke="#fa9595" fill="url(#linearGradient2003)" d="m339.83 135.7c-109.28-0.44126-206.62 73.026-227 178.03-10.236 52.751 0.68751 104.57 27.062 147.66 31.69-57.968 90.726-116.62 199.16-108.53 103.59 7.7255 172.31-32.866 215.41-76.156-27.485-69.059-91.543-123.19-173.94-137.44-13.659-2.3624-27.268-3.5083-40.687-3.5625z"/>
    </g>
  </g>
  <metadata>
    <rdf:RDF>
      <cc:Work>
        <dc:format>image/svg+xml</dc:format>
        <dc:type rdf:resource="http://purl.org/dc/dcmitype/StillImage"/>
        <cc:license rdf:resource="http://creativecommons.org/licenses/publicdomain/"/>
        <dc:publisher>
          <cc:Agent rdf:about="http://openclipart.org/">
            <dc:title>Openclipart</dc:title>
          </cc:Agent>
        </dc:publisher>
        <dc:title>Restaurant</dc:title>
        <dc:date>2011-12-01T15:12:28</dc:date>
        <dc:description>A Button with a Fork and a Spoon</dc:description>
        <dc:source>http://openclipart.org/detail/165896/restaurant-by-luc</dc:source>
        <dc:creator>
          <cc:Agent>
            <dc:title>luc</dc:title>
          </cc:Agent>
        </dc:creator>
        <dc:subject>
          <rdf:Bag>
            <rdf:li>Food</rdf:li>
            <rdf:li>Fork</rdf:li>
            <rdf:li>Glossy</rdf:li>
            <rdf:li>Icon</rdf:li>
            <rdf:li>Red</rdf:li>
            <rdf:li>Restaurant</rdf:li>
            <rdf:li>Spoon</rdf:li>
            <rdf:li>clip art</rdf:li>
            <rdf:li>clipart</rdf:li>
          </rdf:Bag>
        </dc:subject>
      </cc:Work>
      <cc:License rdf:about="http://creativecommons.org/licenses/publicdomain/">
        <cc:permits rdf:resource="http://creativecommons.org/ns#Reproduction"/>
        <cc:permits rdf:resource="http://creativecommons.org/ns#Distribution"/>
        <cc:permits rdf:resource="http://creativecommons.org/ns#DerivativeWorks"/>
      </cc:License>
    </rdf:RDF>
  </metadata>
</svg>
